<?xml version="1.0" standalone="no"?>
<!DOCTYPE svg PUBLIC "-//W3C//DTD SVG 1.1//EN" "http://www.w3.org/Graphics/SVG/1.1/DTD/svg11.dtd" >
<svg xmlns="http://www.w3.org/2000/svg">
<metadata>Generated by IcoMoon</metadata>
<defs>
<font id="icomoon" horiz-adv-x="1024">
<font-face units-per-em="1024" ascent="960" descent="-64" />
<missing-glyph horiz-adv-x="1024" />
<glyph unicode="&#x20;" horiz-adv-x="512" d="" />
<glyph unicode="&#xe600;" glyph-name="envelope" d="M928 832h-832c-53.024 0-96-42.976-96-96v-576c0-52.992 42.976-96 96-96h832c53.024 0 96 43.008 96 96v576c0 53.024-42.976 96-96 96zM87.712 128.32l-23.392 23.424 263.968 263.936 23.392-23.424-263.968-263.936zM936.288 128.32l-263.968 263.936 23.392 23.424 263.968-263.936-23.392-23.424zM544 341.6v-21.6h-64v21.6l-415.904 385.6 40.704 40.704 407.2-377.536 407.2 377.536 40.704-40.704-415.904-385.6z" />
<glyph unicode="&#xe601;" glyph-name="books" horiz-adv-x="1152" d="M224 832h-192c-17.6 0-32-14.4-32-32v-704c0-17.6 14.4-32 32-32h192c17.6 0 32 14.4 32 32v704c0 17.6-14.4 32-32 32zM192 640h-128v64h128v-64zM544 832h-192c-17.6 0-32-14.4-32-32v-704c0-17.6 14.4-32 32-32h192c17.6 0 32 14.4 32 32v704c0 17.6-14.4 32-32 32zM512 640h-128v64h128v-64zM765.088 782.52l-171.464-86.394c-15.716-7.918-22.096-27.258-14.178-42.976l287.978-571.548c7.918-15.718 27.258-22.098 42.976-14.178l171.464 86.392c15.716 7.92 22.096 27.26 14.178 42.974l-287.978 571.55c-7.92 15.718-27.26 22.1-42.976 14.18zM928 96c0-17.673-14.327-32-32-32s-32 14.327-32 32c0 17.673 14.327 32 32 32s32-14.327 32-32z" />
<glyph unicode="&#xe602;" glyph-name="coin-dollar" d="M480 896c-265.096 0-480-214.904-480-480 0-265.098 214.904-480 480-480 265.098 0 480 214.902 480 480 0 265.096-214.902 480-480 480zM480 32c-212.078 0-384 171.922-384 384s171.922 384 384 384c212.078 0 384-171.922 384-384s-171.922-384-384-384zM512 448v128h128v64h-128v64h-64v-64h-128v-256h128v-128h-128v-64h128v-64h64v64h128.002l-0.002 256h-128zM448 448h-64v128h64v-128zM576.002 256h-64.002v128h64.002v-128z" />
<glyph unicode="&#xe603;" glyph-name="coin-euro" d="M480 896c-265.096 0-480-214.904-480-480s214.904-480 480-480c265.098 0 480 214.902 480 480s-214.902 480-480 480zM480 32c-212.078 0-384 171.922-384 384s171.922 384 384 384c212.076 0 384-171.922 384-384s-171.924-384-384-384zM670.824 315.66c-15.27 8.884-34.862 3.708-43.75-11.57-17.256-29.662-49.088-48.090-83.074-48.090h-128c-41.716 0-77.286 26.754-90.496 64h154.496c17.672 0 32 14.326 32 32s-14.328 32-32 32h-160v64h160c17.672 0 32 14.328 32 32s-14.328 32-32 32h-154.496c13.21 37.246 48.78 64 90.496 64h128c33.986 0 65.818-18.426 83.074-48.090 8.888-15.276 28.478-20.456 43.752-11.568 15.276 8.888 20.456 28.476 11.568 43.752-28.672 49.288-81.702 79.906-138.394 79.906h-128c-77.268 0-141.914-55.056-156.78-128h-35.22c-17.672 0-32-14.328-32-32s14.328-32 32-32h32v-64h-32c-17.672 0-32-14.326-32-32s14.328-32 32-32h35.22c14.866-72.944 79.512-128 156.78-128h128c56.692 0 109.72 30.62 138.394 79.91 8.888 15.276 3.708 34.864-11.57 43.75z" />
<glyph unicode="&#xe604;" glyph-name="coin-pound" d="M480 896c-265.096 0-480-214.904-480-480s214.904-480 480-480c265.098 0 480 214.902 480 480s-214.902 480-480 480zM480 32c-212.078 0-384 171.922-384 384s171.922 384 384 384c212.074 0 384-171.922 384-384s-171.926-384-384-384zM608 256h-224v128h96c17.672 0 32 14.326 32 32s-14.328 32-32 32h-96v32c0 52.934 43.066 96 96 96 34.17 0 66.042-18.404 83.18-48.030 8.85-15.298 28.426-20.526 43.722-11.676 15.296 8.848 20.526 28.424 11.676 43.722-28.538 49.336-81.638 79.984-138.578 79.984-88.224 0-160-71.776-160-160v-32h-32c-17.672 0-32-14.326-32-32s14.328-32 32-32h32v-192h288c17.674 0 32 14.326 32 32s-14.326 32-32 32z" />
<glyph unicode="&#xe605;" glyph-name="coin-yen" d="M480 896c-265.096 0-480-214.904-480-480s214.904-480 480-480c265.098 0 480 214.902 480 480s-214.902 480-480 480zM480 32c-212.078 0-384 171.922-384 384s171.922 384 384 384c212.076 0 384-171.922 384-384s-171.924-384-384-384zM608 384c17.674 0 32 14.326 32 32s-14.326 32-32 32h-68.208l94.832 142.25c9.804 14.704 5.83 34.572-8.876 44.376-14.704 9.802-34.572 5.83-44.376-8.876l-101.372-152.062-101.374 152.062c-9.804 14.706-29.672 18.68-44.376 8.876-14.706-9.804-18.678-29.672-8.876-44.376l94.834-142.25h-68.208c-17.672 0-32-14.326-32-32s14.328-32 32-32h96v-64h-96c-17.672 0-32-14.326-32-32s14.328-32 32-32h96v-96c0-17.674 14.328-32 32-32s32 14.326 32 32v96h96c17.674 0 32 14.326 32 32s-14.326 32-32 32h-96v64h96z" />
<glyph unicode="&#xe606;" glyph-name="pushpin" d="M544 960l-96-96 96-96-224-256h-224l176-176-272-360.616v-39.384h39.384l360.616 272 176-176v224l256 224 96-96 96 96-480 480zM448 416l-64 64 224 224 64-64-224-224z" />
<glyph unicode="&#xe607;" glyph-name="location" d="M512 960c-176.732 0-320-143.268-320-320 0-320 320-704 320-704s320 384 320 704c0 176.732-143.27 320-320 320zM512 448c-106.040 0-192 85.96-192 192s85.96 192 192 192 192-85.96 192-192-85.96-192-192-192z" />
<glyph unicode="&#xe608;" glyph-name="clock" d="M658.744 210.744l-210.744 210.746v282.51h128v-229.49l173.256-173.254zM512 960c-282.77 0-512-229.23-512-512s229.23-512 512-512 512 229.23 512 512-229.23 512-512 512zM512 64c-212.078 0-384 171.922-384 384s171.922 384 384 384c212.078 0 384-171.922 384-384s-171.922-384-384-384z" />
<glyph unicode="&#xe609;" glyph-name="hammer" d="M1009.996 131.024l-301.544 301.544c-18.668 18.668-49.214 18.668-67.882 0l-22.626-22.626-184 184 302.056 302.058h-320l-142.058-142.058-14.060 14.058h-67.882v-67.882l14.058-14.058-206.058-206.060 160-160 206.058 206.058 184-184-22.626-22.626c-18.668-18.668-18.668-49.214 0-67.882l301.544-301.544c18.668-18.668 49.214-18.668 67.882 0l113.136 113.136c18.67 18.666 18.67 49.214 0.002 67.882z" />
<glyph unicode="&#xe60a;" glyph-name="stats-dots" d="M128 64h896v-128h-1024v1024h128zM288 128c-53.020 0-96 42.98-96 96s42.98 96 96 96c2.828 0 5.622-0.148 8.388-0.386l103.192 171.986c-9.84 15.070-15.58 33.062-15.58 52.402 0 53.020 42.98 96 96 96s96-42.98 96-96c0-19.342-5.74-37.332-15.58-52.402l103.192-171.986c2.766 0.238 5.56 0.386 8.388 0.386 2.136 0 4.248-0.094 6.35-0.23l170.356 298.122c-10.536 15.408-16.706 34.036-16.706 54.11 0 53.020 42.98 96 96 96s96-42.98 96-96c0-53.020-42.98-96-96-96-2.14 0-4.248 0.094-6.35 0.232l-170.356-298.124c10.536-15.406 16.706-34.036 16.706-54.11 0-53.020-42.98-96-96-96s-96 42.98-96 96c0 19.34 5.74 37.332 15.578 52.402l-103.19 171.984c-2.766-0.238-5.56-0.386-8.388-0.386s-5.622 0.146-8.388 0.386l-103.192-171.986c9.84-15.068 15.58-33.060 15.58-52.4 0-53.020-42.98-96-96-96z" />
<glyph unicode="&#xe60b;" glyph-name="switch" d="M640 813.412v-135.958c36.206-15.804 69.5-38.408 98.274-67.18 60.442-60.44 93.726-140.8 93.726-226.274s-33.286-165.834-93.726-226.274c-60.44-60.44-140.798-93.726-226.274-93.726s-165.834 33.286-226.274 93.726c-60.44 60.44-93.726 140.8-93.726 226.274s33.286 165.834 93.726 226.274c28.774 28.774 62.068 51.378 98.274 67.182v135.956c-185.048-55.080-320-226.472-320-429.412 0-247.424 200.578-448 448-448 247.424 0 448 200.576 448 448 0 202.94-134.95 374.332-320 429.412zM448 960h128v-512h-128z" />
<glyph unicode="&#xe60c;" glyph-name="clipboard" d="M928 832h-288c0 70.692-57.306 128-128 128-70.692 0-128-57.308-128-128h-288c-17.672 0-32-14.328-32-32v-832c0-17.674 14.328-32 32-32h832c17.674 0 32 14.326 32 32v832c0 17.672-14.326 32-32 32zM512 896c35.346 0 64-28.654 64-64s-28.654-64-64-64c-35.346 0-64 28.654-64 64s28.654 64 64 64zM896 0h-768v768h128v-96c0-17.672 14.328-32 32-32h448c17.674 0 32 14.328 32 32v96h128v-768zM448 101.49l-205.254 237.254 58.508 58.51 146.746-114.744 274.742 242.744 58.514-58.508z" />
<glyph unicode="&#xe60d;" glyph-name="list2" d="M384 896h640v-128h-640v128zM384 512h640v-128h-640v128zM384 128h640v-128h-640v128zM0 832c0 70.692 57.308 128 128 128s128-57.308 128-128c0-70.692-57.308-128-128-128s-128 57.308-128 128zM0 448c0 70.692 57.308 128 128 128s128-57.308 128-128c0-70.692-57.308-128-128-128s-128 57.308-128 128zM0 64c0 70.692 57.308 128 128 128s128-57.308 128-128c0-70.692-57.308-128-128-128s-128 57.308-128 128z" />
<glyph unicode="&#xe60e;" glyph-name="heart" d="M755.188 896c-107.63 0-200.258-87.554-243.164-179-42.938 91.444-135.578 179-243.216 179-148.382 0-268.808-120.44-268.808-268.832 0-301.846 304.5-380.994 512.022-679.418 196.154 296.576 511.978 387.206 511.978 679.418 0 148.392-120.43 268.832-268.812 268.832z" />
<glyph unicode="&#xe60f;" glyph-name="plus" d="M992 576h-352v352c0 17.672-14.328 32-32 32h-192c-17.672 0-32-14.328-32-32v-352h-352c-17.672 0-32-14.328-32-32v-192c0-17.672 14.328-32 32-32h352v-352c0-17.672 14.328-32 32-32h192c17.672 0 32 14.328 32 32v352h352c17.672 0 32 14.328 32 32v192c0 17.672-14.328 32-32 32z" />
<glyph unicode="&#xe610;" glyph-name="minus" d="M0 544v-192c0-17.672 14.328-32 32-32h960c17.672 0 32 14.328 32 32v192c0 17.672-14.328 32-32 32h-960c-17.672 0-32-14.328-32-32z" />
<glyph unicode="&#xe611;" glyph-name="cross" d="M1014.662 137.34c-0.004 0.004-0.008 0.008-0.012 0.010l-310.644 310.65 310.644 310.65c0.004 0.004 0.008 0.006 0.012 0.010 3.344 3.346 5.762 7.254 7.312 11.416 4.246 11.376 1.824 24.682-7.324 33.83l-146.746 146.746c-9.148 9.146-22.45 11.566-33.828 7.32-4.16-1.55-8.070-3.968-11.418-7.31 0-0.004-0.004-0.006-0.008-0.010l-310.648-310.652-310.648 310.65c-0.004 0.004-0.006 0.006-0.010 0.010-3.346 3.342-7.254 5.76-11.414 7.31-11.38 4.248-24.682 1.826-33.83-7.32l-146.748-146.748c-9.148-9.148-11.568-22.452-7.322-33.828 1.552-4.16 3.97-8.072 7.312-11.416 0.004-0.002 0.006-0.006 0.010-0.010l310.65-310.648-310.65-310.652c-0.002-0.004-0.006-0.006-0.008-0.010-3.342-3.346-5.76-7.254-7.314-11.414-4.248-11.376-1.826-24.682 7.322-33.83l146.748-146.746c9.15-9.148 22.452-11.568 33.83-7.322 4.16 1.552 8.070 3.97 11.416 7.312 0.002 0.004 0.006 0.006 0.010 0.010l310.648 310.65 310.648-310.65c0.004-0.002 0.008-0.006 0.012-0.008 3.348-3.344 7.254-5.762 11.414-7.314 11.378-4.246 24.684-1.826 33.828 7.322l146.746 146.748c9.148 9.148 11.57 22.454 7.324 33.83-1.552 4.16-3.97 8.068-7.314 11.414z" />
<glyph unicode="&#xe612;" glyph-name="checkmark" d="M864 832l-480-480-224 224-160-160 384-384 640 640z" />
<glyph unicode="&#xe613;" glyph-name="circle-up" d="M0 448c0-282.77 229.23-512 512-512s512 229.23 512 512-229.23 512-512 512-512-229.23-512-512zM928 448c0-229.75-186.25-416-416-416s-416 186.25-416 416 186.25 416 416 416 416-186.25 416-416zM706.744 290.744l90.512 90.512-285.256 285.254-285.254-285.256 90.508-90.508 194.746 194.744z" />
<glyph unicode="&#xe614;" glyph-name="circle-right" d="M512 960c-282.77 0-512-229.23-512-512s229.23-512 512-512 512 229.23 512 512-229.23 512-512 512zM512 32c-229.75 0-416 186.25-416 416s186.25 416 416 416 416-186.25 416-416-186.25-416-416-416zM354.744 253.256l90.512-90.512 285.254 285.256-285.256 285.254-90.508-90.508 194.744-194.746z" />
<glyph unicode="&#xe615;" glyph-name="circle-down" d="M1024 448c0 282.77-229.23 512-512 512s-512-229.23-512-512 229.23-512 512-512 512 229.23 512 512zM96 448c0 229.75 186.25 416 416 416s416-186.25 416-416-186.25-416-416-416-416 186.25-416 416zM317.256 605.256l-90.512-90.512 285.256-285.254 285.254 285.256-90.508 90.508-194.746-194.744z" />
<glyph unicode="&#xe616;" glyph-name="circle-left" d="M512-64c282.77 0 512 229.23 512 512s-229.23 512-512 512-512-229.23-512-512 229.23-512 512-512zM512 864c229.75 0 416-186.25 416-416s-186.25-416-416-416-416 186.25-416 416 186.25 416 416 416zM669.256 642.744l-90.512 90.512-285.254-285.256 285.256-285.254 90.508 90.508-194.744 194.746z" />
<glyph unicode="&#xe617;" glyph-name="facebook3" d="M512 960c-282.77 0-512-229.23-512-512s229.23-512 512-512v384h-128v128h128v96c0 88.366 71.632 160 160 160h160v-128h-160c-17.674 0-32-14.328-32-32v-96h176l-32-128h-144v-367.87c220.828 56.838 384 257.3 384 495.87 0 282.77-229.23 512-512 512z" />
<glyph unicode="&#xe618;" glyph-name="twitter3" d="M512 960c-282.77 0-512-229.23-512-512s229.23-512 512-512 512 229.23 512 512-229.23 512-512 512zM766.478 578.52c0.252-5.632 0.38-11.296 0.38-16.988 0-173.51-132.070-373.588-373.584-373.588-74.15 0-143.168 21.738-201.276 58.996 10.272-1.218 20.724-1.84 31.322-1.84 61.518 0 118.134 20.992 163.072 56.21-57.458 1.054-105.948 39.020-122.658 91.184 8.018-1.532 16.244-2.36 24.704-2.36 11.976 0 23.578 1.61 34.592 4.61-60.064 12.066-105.326 65.132-105.326 128.75 0 0.554 0 1.104 0.012 1.652 17.7-9.834 37.948-15.742 59.47-16.424-35.232 23.546-58.414 63.736-58.414 109.292 0 24.064 6.476 46.62 17.78 66.010 64.76-79.44 161.51-131.712 270.634-137.19-2.238 9.612-3.4 19.632-3.4 29.924 0 72.512 58.792 131.298 131.304 131.298 37.766 0 71.892-15.944 95.842-41.462 29.908 5.886 58.008 16.814 83.38 31.862-9.804-30.662-30.624-56.394-57.732-72.644 26.56 3.174 51.866 10.232 75.412 20.674-17.594-26.328-39.854-49.454-65.514-67.966z" />
<glyph unicode="&#xe619;" d="M898.272 448c0-213.332-172.94-386.272-386.272-386.272s-386.272 172.94-386.272 386.272c0 213.332 172.94 386.272 386.272 386.272s386.272-172.94 386.272-386.272z" />
<glyph unicode="&#xe61a;" d="M512 944.736c-274.336 0-496.736-222.4-496.736-496.736s222.4-496.736 496.736-496.736c274.336 0 496.736 222.4 496.736 496.736s-222.4 496.736-496.736 496.736zM573.28 219.264l-3.52-32.832c-92-57.056-220.96-41.056-167.232 97.408 19.808 51.040 92.224 148.48 71.072 204.16-8.704 22.88-37.664 22.88-65.952 13.28l3.232 30.368c47.904 31.872 110.528 49.312 155.52 22.272 80.576-48.416-36.032-224.288-49.984-259.2-28.896-72.384 6.816-89.056 56.864-75.456zM569.504 611.328c-35.68 0-64.608 28.928-64.608 64.608s28.928 64.608 64.608 64.608c35.68 0 64.608-28.928 64.608-64.608s-28.928-64.608-64.608-64.608z" />
<glyph unicode="&#xe61b;" glyph-name="icon-achieve" d="M991.264 771.552h-121.28c1.952 34.432 3.2 70.4 3.2 108.832h-722.368c0-38.304 1.056-74.464 3.008-108.832h-121.088c-15.36 0-27.776-12.416-27.776-27.776 0-199.872 114.336-305.344 234.4-361.12 58.592-123.072 134.816-178.688 191.776-203.84v-71.712h-71.936v-91.424h305.6v91.424h-71.904v72.672c56.704 25.568 132.384 81.664 190.912 203.552 120.384 55.968 235.264 161.376 235.264 360.48-0.032 15.328-12.48 27.744-27.808 27.744zM61.376 715.968h96.448c9.152-101.92 26.752-185.28 49.44-253.376-89.92 58.912-138.944 143.744-145.888 253.376zM582.112 523.040l43.328-133.344-113.44 82.4-113.44-82.4 43.328 133.344-113.44 82.4h140.192l43.36 133.312 43.328-133.344h140.192l-113.408-82.368zM816.288 463.456c22.784 67.872 40.352 151.168 49.6 252.544h96.704c-7.008-109.024-56.16-193.6-146.304-252.544z" />
<glyph unicode="&#xe61c;" glyph-name="icon-bonus" d="M782.688 471.040l128.736 472.032h-343.296v-260.16l85.824-211.872h128.736zM396.448 471.040l85.824 214.56v257.472h-343.264l128.704-472.032h128.736zM611.040 381.376l-86.528 256.864-85.12-256.864h-300.384l257.472-171.648-109.376-256.8 238.112 171.008 239.232-170.24-110.496 256.064 257.472 171.648h-300.384z" />
<glyph unicode="&#xe61d;" glyph-name="icon-bonus01" d="M932.448 623.168l79.264 188.896h-211.36v-58.464l52.832-130.432h79.264zM694.688 623.168l52.832 132.096v56.8h-211.328l79.264-188.896h79.232zM826.784 571.328l-53.28 158.144-52.384-158.144h-184.928l158.496-105.664-67.328-158.080 146.592 105.28 147.296-104.8-68.032 157.632 158.496 105.664h-184.928zM579.008 381.088c0-63.058-51.118-114.176-114.176-114.176s-114.176 51.118-114.176 114.176c0 63.058 51.118 114.176 114.176 114.176s114.176-51.118 114.176-114.176zM464.832 285.12c-111.104 0-201.184-90.080-201.184-201.184h402.336c0 111.136-90.048 201.184-201.152 201.184zM327.648 381.088c0-63.058-51.118-114.176-114.176-114.176s-114.176 51.118-114.176 114.176c0 63.058 51.118 114.176 114.176 114.176s114.176-51.118 114.176-114.176zM213.472 285.12c-111.104 0-201.184-90.080-201.184-201.184h402.336c0.032 111.136-90.048 201.184-201.152 201.184z" />
<glyph unicode="&#xe61e;" glyph-name="icon-bonus02" d="M865.856 657.248l94.912 226.24h-253.152v-70.016l63.296-156.224h94.944zM581.056 657.248l63.296 158.208v68.032h-253.12l94.912-226.24h94.912zM739.296 595.136l-63.808 189.408-62.752-189.408h-221.504l189.856-126.56-80.64-189.376 175.584 126.080 176.416-125.536-81.472 188.8 189.856 126.56h-221.536zM440.96 377.952c0-75.535-61.233-136.768-136.768-136.768s-136.768 61.233-136.768 136.768c0 75.535 61.233 136.768 136.768 136.768s136.768-61.233 136.768-136.768zM304.192 253.472c-133.088 0-240.96-107.872-240.96-240.96h481.92c0 133.088-107.904 240.96-240.96 240.96z" />
<glyph unicode="&#xe61f;" glyph-name="icon-card" d="M480.415 924.342l513.591-287.461-361.494-645.864-513.591 287.461 361.494 645.864zM75.424 266.4l347.552 620.992-31.52 17.632-361.504-645.888 513.632-287.456 13.92 24.896z" />
<glyph unicode="&#xe620;" glyph-name="icon-direct" d="M939.552 679.040c-35.616 0-64.576-28.96-64.576-64.576 0-14.464 4.448-27.84 12.256-37.856l-84.608-61.248c-61.248-44.544-148.096-22.272-181.504 45.664l-77.952 156.992c21.152 11.136 35.616 32.288 35.616 57.888 0 35.616-28.96 64.576-64.576 64.576s-64.576-28.96-64.576-64.576c0-25.6 14.464-46.752 35.616-57.888l-77.952-156.992c-33.408-67.936-120.256-89.088-181.504-45.664l-86.848 62.368c6.688 10.016 11.136 23.392 11.136 36.736 0 35.616-28.96 64.576-64.576 64.576s-65.664-28.96-65.664-64.576 28.96-64.576 64.576-64.576c8.896 0 16.704 2.24 24.48 4.448l148.096-381.92h513.312l148.096 380.8c6.688-2.24 13.376-3.328 21.152-3.328 35.616 0 64.576 28.96 64.576 64.576s-28.928 64.576-64.576 64.576zM257.024 85.568c0-16.704 13.376-30.048 30.048-30.048h452.064c16.704 0 30.048 13.376 30.048 30.048v42.304h-512.16v-42.304z" />
<glyph unicode="&#xe621;" glyph-name="icon-edit" d="M95.008 265.6l-82.432-317.056 317.024 82.4zM1011.424 782.848c0 90.912-73.696 164.608-164.608 164.608-45.472 0-86.624-18.432-116.416-48.224l-0.864 0.864-576.96-576.896 234.72-234.592 576.736 576.864-0.896 0.896c29.824 29.792 48.288 70.976 48.288 116.48z" />
<glyph unicode="&#xe622;" glyph-name="icon-genealogy" d="M213.216 144.512c0-50.952-41.304-92.256-92.256-92.256s-92.256 41.304-92.256 92.256c0 50.952 41.304 92.256 92.256 92.256s92.256-41.304 92.256-92.256zM478.4 144.512c0-50.952-41.304-92.256-92.256-92.256s-92.256 41.304-92.256 92.256c0 50.952 41.304 92.256 92.256 92.256s92.256-41.304 92.256-92.256zM367.072 421.056c0-62.687-50.817-113.504-113.504-113.504s-113.504 50.817-113.504 113.504c0 62.687 50.817 113.504 113.504 113.504s113.504-50.817 113.504-113.504zM730.112 144.512c0-50.952-41.304-92.256-92.256-92.256s-92.256 41.304-92.256 92.256c0 50.952 41.304 92.256 92.256 92.256s92.256-41.304 92.256-92.256zM995.296 144.512c0-50.952-41.304-92.256-92.256-92.256s-92.256 41.304-92.256 92.256c0 50.952 41.304 92.256 92.256 92.256s92.256-41.304 92.256-92.256zM883.936 421.056c0-62.687-50.817-113.504-113.504-113.504s-113.504 50.817-113.504 113.504c0 62.687 50.817 113.504 113.504 113.504s113.504-50.817 113.504-113.504zM647.456 697.568c0-80.731-65.445-146.176-146.176-146.176s-146.176 65.445-146.176 146.176c0 80.731 65.445 146.176 146.176 146.176s146.176-65.445 146.176-146.176z" />
<glyph unicode="&#xe623;" glyph-name="icon-logo" d="M772.736 694.72c-23.136 0-45.472-3.296-66.688-9.312 0.032 0.032 0.032 0.064 0.064 0.064-64.896-13.664-112.64-69.312-112.64-69.312l-0.32-0.384c-4.544-4.928-8.832-10.080-12.96-15.36l-172.512-204.832-42.88-46.24c-35.296-34.304-72.416-56.448-121.024-56.448-87.296 0-158.112 70.784-158.112 158.080s70.816 158.112 158.112 158.112c80.64 0 147.008-60.416 156.736-138.4l186.048 212.288h-103.424l-58.912-68.288c-44.544 49.152-108.864 80.128-180.448 80.128-134.656-0.064-243.776-109.248-243.776-243.872s109.12-243.776 243.776-243.776c72.96 0 138.4 32.096 183.072 82.88v-0.032l1.28 1.504c1.728 2.016 3.456 4.032 5.152 6.112l95.52 113.28c0.064-0.448 0.096-0.864 0.16-1.312l30.592 37.824 83.264 98.752c47.648 48.288 81.12 62.72 136.544 62.72 87.296 0 151.424-70.624 151.424-157.92s-70.752-158.080-158.080-158.080c-50.528 0-95.168 24-124.096 60.96l19.936 116.352-237.888-268.896h104.544l68.896 74.016c43.744-42.144 103.040-68.128 168.608-68.128 134.624 0 243.776 109.184 243.776 243.776 0.032 134.592-109.152 243.744-243.744 243.744z" />
<glyph unicode="&#xe624;" glyph-name="icon-market" d="M512.416 101.664c0-52.825-42.823-95.648-95.648-95.648s-95.648 42.823-95.648 95.648c0 52.825 42.823 95.648 95.648 95.648s95.648-42.823 95.648-95.648zM1014.24 101.664c0-52.825-42.823-95.648-95.648-95.648s-95.648 42.823-95.648 95.648c0 52.825 42.823 95.648 95.648 95.648s95.648-42.823 95.648-95.648zM335.968 375.872c0.288-0.992 0.576-2.016 0.896-3.008l-0.896 3.008zM241.504 343.232l-0.864 2.976c0.288-0.992 0.576-1.984 0.864-2.976zM1014.24 777.6h-796.704l-33.152 112.384h-174.624l18.848-63.424h70.496l142.4-483.296c22.592-70.976 89.12-122.56 167.488-122.56h605.248v99.84h-605.248c-33.632 0-62.176 21.984-72.128 52.352-0.32 0.992-0.608 2.016-0.896 3.008l-4.128 14.016 682.4 133.44v254.24z" />
<glyph unicode="&#xe625;" glyph-name="icon-org" d="M894.304 407.904c-30.368 0-58.304-10.528-80.512-28l-95.104 86.432c28.384 37.024 45.44 83.168 45.44 133.312 0 121.216-98.624 219.84-219.84 219.84s-219.84-98.624-219.84-219.84c0-50.688 17.408-97.344 46.368-134.56l-75.2-83.104c-31.52 29.312-73.6 47.424-119.936 47.424-97.28 0-176.416-79.136-176.416-176.416s79.136-176.416 176.416-176.416 176.416 79.136 176.416 176.416c0 33.12-9.344 64-25.28 90.496l78.080 86.304c37.984-31.2 86.496-49.984 139.36-49.984 53.44 0 102.464 19.2 140.608 51.040l96.768-87.904c-11.232-19.264-17.792-41.568-17.792-65.472 0-71.936 58.528-130.432 130.432-130.432s130.432 58.528 130.432 130.432-58.464 130.432-130.4 130.432z" />
<glyph unicode="&#xe626;" glyph-name="icon-panel" d="M562.464 477.856c-16.928 31.968-191.776 236.224-197.696 233.088s64.928-262.496 81.888-294.464c16.928-31.968 56.608-44.16 88.576-27.2 32 16.928 44.192 56.576 27.232 88.576zM512 936c-269.504 0-488-218.464-488-488 0-269.504 218.496-488 488-488s488 218.496 488 488c0 269.536-218.496 488-488 488zM512 812.064c201.056 0 364.064-162.976 364.064-364.064 0-24.544-2.464-48.544-7.104-71.744h-206.112c-17.152-49.44-78.080-86.080-150.848-86.080s-133.696 36.64-150.848 86.080h-206.112c-4.64 23.2-7.104 47.2-7.104 71.744 0 201.088 163.008 364.064 364.064 364.064z" />
<glyph unicode="&#xe627;" glyph-name="icon-pay-cal" d="M575.808 267.008h-199.072c-31.328 0-56.736 25.408-56.736 56.736v182.752c0 31.328 25.408 56.736 56.736 56.736s56.736-25.408 56.736-56.736v-125.984h142.336c31.328 0 56.736-25.408 56.736-56.736s-25.376-56.768-56.736-56.768zM412.128-30.56c-221.696 0-402.048 180.352-402.048 402.048s180.384 402.048 402.048 402.048 402.048-180.352 402.048-402.048-180.352-402.048-402.048-402.048zM412.128 660.064c-159.104 0-288.576-129.44-288.576-288.576s129.44-288.576 288.576-288.576 288.576 129.44 288.576 288.576-129.44 288.576-288.576 288.576zM832.384 368v28.8c-27.552 2.464-51.040 7.136-70.464 14.016s-35.424 16.704-47.968 29.504c-12.544 12.8-21.76 28.672-27.68 47.584-5.92 18.944-8.864 41.44-8.864 67.52h88.544c1.952-15.744 4.544-28.768 7.744-39.104s7.36-18.688 12.544-25.088c5.184-6.4 11.424-11.2 18.816-14.4 7.36-3.2 16.48-5.536 27.296-7.008v142.4c-24.608 6.4-46.016 13.664-64.192 21.76-18.208 8.128-33.344 17.696-45.408 28.8-12.064 11.072-21.152 23.84-27.296 38.368-6.176 14.496-9.216 31.84-9.216 52 0 19.2 3.68 37.28 11.072 54.24s17.568 31.84 30.624 44.64c13.024 12.8 28.416 22.88 46.112 30.24 17.696 7.392 37.152 11.328 58.304 11.808v32.48h30.24v-32.448c91.008-2.944 138.72-50.688 143.168-143.168h-87.040c-2.464 26.56-8.224 44.672-17.344 54.24s-22.016 14.88-38.752 15.872v-126.912c32.96-10.816 59.424-21.408 79.328-31.744 19.936-10.336 35.168-21.28 45.728-32.832s17.568-24.256 21.024-38.016c3.456-13.792 5.184-29.76 5.184-47.968 0-21.664-3.552-41.216-10.688-58.656s-17.344-32.576-30.624-45.376c-13.28-12.8-29.28-22.848-47.968-30.24s-39.36-11.552-61.984-12.544v-28.8h-30.24zM832.384 821.056c-17.984-0.992-32.064-6.912-42.272-17.696-10.208-10.816-15.296-23.392-15.296-37.632 0-14.784 4.96-28.16 14.944-40.224 9.952-12.064 24.16-19.296 42.624-21.76v117.312zM862.656 469.824c18.688 0.96 33.568 7.616 44.64 19.936 11.072 12.288 16.608 26.304 16.608 42.048 0 17.216-5.536 31.744-16.608 43.552s-25.952 20.16-44.64 25.088v-130.624z" />
<glyph unicode="&#xe628;" glyph-name="icon-pay" d="M1001.792 131.328h-865.152v25.408c0 5.92-6.112 18.432-12.032 18.432h-59.36c-5.92 0-12.064-12.512-12.064-18.432v-99.040c0-5.92 6.144-10.72 12.064-10.72h936.544c5.92 0 12.032 4.8 12.032 10.72v56.16c0 5.92-6.112 17.472-12.032 17.472zM141.696 366.88l-28.288 14.304 7.392 14.528c1.728 3.456 2.048 7.456 0.864 11.104-1.216 3.68-3.808 6.72-7.232 8.48l-41.28 20.928c-3.424 1.76-7.456 2.048-11.104 0.864-3.68-1.216-6.72-3.808-8.448-7.264l-41.856-82.528c-3.616-7.168-0.768-15.936 6.4-19.552l41.248-20.928c2.112-1.056 4.352-1.568 6.56-1.568 5.312 0 10.432 2.912 12.992 7.968l7.392 14.528 28.288-14.336c7.168-3.616 15.936-0.768 19.552 6.4l13.952 27.52c1.728 3.424 2.048 7.424 0.864 11.104-1.248 3.68-3.84 6.72-7.296 8.448zM193.248 515.84l9.44 13.28c2.24 3.136 3.168 7.040 2.528 10.848s-2.752 7.2-5.92 9.44l-37.696 26.848c-6.56 4.672-15.648 3.136-20.288-3.392l-53.696-75.328c-2.24-3.136-3.136-7.040-2.496-10.848s2.752-7.2 5.92-9.44l37.664-26.848c6.528-4.672 15.616-3.136 20.288 3.392l9.472 13.28 25.824-18.4c2.56-1.824 5.504-2.72 8.416-2.72 4.544 0 9.024 2.144 11.872 6.112l17.92 25.12c2.24 3.136 3.136 7.040 2.496 10.848s-2.752 7.2-5.92 9.44l-25.824 18.368zM325.888 611.872l-22.496 22.336 11.488 11.552c2.72 2.752 4.256 6.432 4.256 10.304s-1.568 7.584-4.288 10.304l-32.8 32.64c-5.728 5.632-14.912 5.6-20.608-0.064l-65.28-65.568c-2.72-2.752-4.256-6.432-4.224-10.304 0-3.872 1.536-7.552 4.288-10.272l32.8-32.608c5.696-5.696 14.912-5.632 20.576 0.032l11.488 11.52 22.496-22.336c2.848-2.816 6.56-4.256 10.24-4.256 3.744 0 7.456 1.44 10.304 4.288l21.76 21.856c2.72 2.72 4.256 6.432 4.256 10.304s-1.536 7.552-4.256 10.272zM969.632 712.224h-104.32v126.080c0 5.92 0.384 10.72-5.536 10.72h-134.88c-5.92 0-18.304-4.8-18.304-10.72v-186.080l-87.328 2.048c-262.176 0-473.6-212.32-473.6-477.696 0-13.856 1.92-23.328 13.856-23.328h810.112c5.952 0 11.328-2.432 11.328 3.488v546.688c0 5.92-5.408 8.8-11.328 8.8zM832.416 720.896c0-4.8-3.872-8.704-8.672-8.704h-86.56c-4.8 0-8.672 3.904-8.672 8.704v97.504c0 4.8 3.872 8.704 8.672 8.704h86.56c4.8 0 8.672-3.904 8.672-8.704v-97.504z" />
<glyph unicode="&#xe629;" d="M797.152 330.944h-184.896c-29.12 0-52.704 23.584-52.704 52.704v169.728c0 29.12 23.584 52.704 52.704 52.704s52.704-23.584 52.704-52.704v-117.024h132.192c29.12 0 52.704-23.584 52.704-52.704s-23.616-52.704-52.704-52.704z" />
<glyph unicode="&#xe62a;" d="M645.12 54.56c-205.888 0-373.408 167.488-373.408 373.376s167.52 373.44 373.408 373.44c205.888 0 373.408-167.488 373.408-373.408s-167.52-373.408-373.408-373.408zM645.12 695.968c-147.776 0-268-120.224-268-268s120.224-268 268-268 268 120.224 268 268c0 147.776-120.224 268-268 268z" />
<glyph unicode="&#xe62b;" d="M429.504 623.712c0-97.803-79.285-177.088-177.088-177.088s-177.088 79.285-177.088 177.088c0 97.803 79.285 177.088 177.088 177.088s177.088-79.285 177.088-177.088z" />
<glyph unicode="&#xe62c;" d="M267.584 841.44c-144.768 0-262.144-117.344-262.144-262.144 0-144.768 117.376-262.144 262.144-262.144s262.144 117.344 262.144 262.144c0 144.768-117.344 262.144-262.144 262.144zM360.416 446.624l-92.832 66.048-92.384-66.336 42.432 99.648-99.872 66.592h116.544l33.024 99.68 33.568-99.68h116.544l-99.904-66.592 42.88-99.36z" />
<glyph unicode="&#xe62d;" glyph-name="icon-points-con" d="M372.992 817.024c-203.776 0-368.992-165.216-368.992-369.024s165.216-369.024 369.024-369.024c203.808 0 369.024 165.216 369.024 369.024-0.032 203.808-165.248 369.024-369.056 369.024zM503.68 261.248l-130.688 92.992-130.080-93.408 59.744 140.256-140.64 93.76h164.096l46.496 140.32 47.264-140.32h164.064l-140.64-93.76 60.384-139.84zM843.744 187.168l176.256 129.568-176.256 130.112v-71.168h-194.080c-32.256 0-58.4-26.144-58.4-58.4s26.144-58.4 58.4-58.4h194.080v-71.712zM843.744 441.216l176.256 129.568-176.256 130.112v-71.168h-194.080c-32.256 0-58.4-26.144-58.4-58.4s26.144-58.4 58.4-58.4h194.080v-71.712z" />
<glyph unicode="&#xe62e;" glyph-name="icon-points" d="M512 945.248c-274.624 0-497.248-222.624-497.248-497.248s222.624-497.248 497.248-497.248c274.624 0 497.248 222.624 497.248 497.248s-222.624 497.248-497.248 497.248zM688.096 196.352l-176.096 125.312-175.264-125.856 80.512 189.024-189.504 126.336h221.088l62.624 189.056 63.712-189.056h221.088l-189.504-126.336 81.344-188.48z" />
<glyph unicode="&#xe62f;" glyph-name="icon-prize" d="M565.376 954.88c4.288 0 8.576 0 12.896 0 0.128-0.096 0.256-0.256 0.416-0.288 12.224-1.664 22.208-7.776 31.392-15.552 9.6-8.128 18.080-17.376 26.464-26.688 15.168-16.832 33.28-28.352 55.552-33.44 11.776-2.688 23.456-5.856 35.008-9.568 23.936-7.712 38.464-23.456 43.072-48.384 2.336-12.512 3.872-25.088 5.504-37.696 2.528-19.136 8.704-36.672 20.928-51.84 8.032-9.952 16.128-19.872 23.904-30.016 7.552-9.824 13.792-20.32 15.84-32.832 0.288-1.824-0.128-3.776 0.736-5.536 0-0.864 0-1.728 0-2.592-0.16-0.384-0.416-0.768-0.416-1.152-0.256-8.096-2.592-15.712-5.568-23.168-4.928-12.32-11.488-23.84-18.208-35.232-12.16-20.576-15.904-42.624-13.792-66.144 1.184-13.152 1.952-26.368 0.928-39.616-1.44-18.816-9.632-33.504-25.408-44.032-11.072-7.36-23.168-12.704-35.072-18.432-10.528-5.056-20.992-10.272-30.112-17.76-9.728-7.968-16.544-18.304-23.296-28.704-0.736-1.152-0.192-2.112 0.16-3.168 7.232-22.016 14.432-44.032 21.664-66.048 19.552-59.52 39.072-119.072 58.592-178.592 10.592-32.288 21.216-64.576 31.808-96.864 1.024-3.104 1.696-6.272 1.536-9.6-0.256-5.376-3.808-8.128-8.992-6.944-0.928 0.224-1.824 0.48-2.72 0.832-32 11.68-64.096 23.136-96 35.136-11.072 4.16-22.464-1.696-27.072-10.624-17.568-34.208-35.296-68.352-52.896-102.56-1.536-2.976-3.488-5.472-6.72-6.688-0.352 0-0.672 0-1.024 0-3.52 1.152-5.6 3.808-7.040 7.008-0.48 1.088-0.896 2.208-1.28 3.36-17.856 54.4-35.712 108.768-53.568 163.168-10.912 33.28-21.856 66.56-32.768 99.808-1.6 4.864-3.232 9.696-4.992 15.040-0.384-1.152-0.608-1.728-0.768-2.304-4.352-16.352-8.672-32.704-13.024-49.024-19.616-73.824-39.264-147.648-58.88-221.44-0.8-3.008-1.888-5.888-3.936-8.32-2.592-3.008-5.856-3.232-8.768-0.576-1.344 1.248-2.368 2.688-3.296 4.256-12.576 21.312-25.152 42.624-37.728 63.904-6.912 11.68-13.888 23.328-20.704 35.072-5.152 8.896-16.736 14.4-27.936 9.248-17.696-8.128-35.744-15.552-53.632-23.232-13.632-5.856-27.264-11.776-40.928-17.568-6.752-2.88-11.136 0.128-11.296 7.488-0.064 2.88 0.448 5.632 1.152 8.384 18.432 69.248 36.864 138.496 55.296 207.744 13.216 49.664 26.4 99.36 39.712 149.024 0.576 2.144 0.096 2.816-1.984 3.296-7.168 1.728-14.304 3.68-21.28 6.080-5.792 1.984-11.36 4.416-16.672 7.456-14.464 8.192-21.952 21.216-25.792 36.864-3.456 14.144-4.672 28.64-6.688 42.976-2.56 18.112-8.32 34.816-19.744 49.376-5.248 6.72-10.592 13.312-15.968 19.904-7.616 9.344-15.104 18.72-20.288 29.696-2.24 4.992-3.456 10.208-4.8 15.424 0 4.128 0 8.256 0 12.384 0.16 0.384 0.416 0.736 0.48 1.12 0.704 5.216 2.144 10.24 3.968 15.168 4.64 12.64 11.616 24.128 17.984 35.904 5.28 9.76 10.4 19.584 13.152 30.4 3.296 13.088 2.592 26.4 1.856 39.712-0.672 12.16-1.696 24.32-0.928 36.544 1.248 19.584 9.568 34.944 26.112 45.76 11.936 7.808 24.8 13.728 37.728 19.52 20.704 9.28 37.184 23.072 48.8 42.72 6.016 10.208 12.352 20.256 19.552 29.664 6.976 9.12 14.816 17.184 25.408 22.112 11.808 5.472 24.224 5.792 36.864 4.416 13.152-1.44 26.048-4.576 39.072-6.72 9.504-1.568 19.072-2.592 28.704-1.472 11.36 1.344 22.016 5.248 32.608 9.28 12.672 4.832 25.088 10.368 38.368 13.344 2.912 0.672 5.856 1.216 8.768 1.824zM724.416 635.232c-0.064 116.416-92.864 211.872-210.432 212.736-119.232 0.864-214.72-93.984-214.656-212.352 0.064-116.864 93.184-211.936 211.328-212.64 118.304-0.736 213.76 94.656 213.76 212.256z" />
<glyph unicode="&#xe630;" glyph-name="icon-profile" d="M512 897.344c-277.408 0-502.272-224.864-502.272-502.272 0-161.184 76-304.512 194.016-396.416 48.096 123.424 167.808 211.040 308.224 211.040 140.448 0 260.16-87.616 308.224-211.040 118.016 91.904 194.048 235.232 194.048 396.416 0.032 277.408-224.864 502.272-502.24 502.272zM512 263.36c-103.744 0-187.872 84.128-187.872 187.872s84.128 187.872 187.872 187.872c103.744 0 187.872-84.128 187.872-187.872 0-103.776-84.128-187.872-187.872-187.872z" />
<glyph unicode="&#xe631;" glyph-name="icon-promo" d="M897.856 918.656l-431.68-54.784-394.816-509.632 486.464-376.896 394.816 509.632-54.784 431.68zM698.272 660.576c-27.2 21.088-32.16 60.224-11.104 87.424 21.088 27.2 60.224 32.16 87.424 11.104 27.2-21.088 32.16-60.224 11.104-87.424s-60.192-32.16-87.424-11.104z" />
<glyph unicode="&#xe632;" glyph-name="icon-recog" d="M790.688 934.88c3.552 0 7.072 0 10.624 0 0.096-0.096 0.224-0.224 0.32-0.256 10.080-1.376 18.336-6.4 25.92-12.832 7.936-6.688 14.912-14.336 21.824-22.016 12.512-13.888 27.456-23.392 45.824-27.584 9.728-2.208 19.36-4.832 28.864-7.904 19.744-6.368 31.712-19.328 35.552-39.904 1.92-10.304 3.2-20.704 4.544-31.104 2.080-15.776 7.168-30.24 17.28-42.752 6.624-8.192 13.312-16.384 19.712-24.768 6.208-8.096 11.392-16.768 13.056-27.104 0.256-1.504-0.096-3.104 0.608-4.576 0-0.704 0-1.44 0-2.144-0.128-0.32-0.32-0.64-0.32-0.96-0.192-6.688-2.144-12.96-4.608-19.104-4.064-10.144-9.472-19.68-15.008-29.056-10.016-16.96-13.12-35.136-11.392-54.56 0.992-10.848 1.632-21.76 0.768-32.704-1.184-15.52-7.968-27.648-20.96-36.32-9.12-6.080-19.104-10.496-28.928-15.2-8.704-4.192-17.344-8.48-24.832-14.656-8-6.56-13.632-15.104-19.2-23.68-0.608-0.96-0.16-1.76 0.128-2.624 5.952-18.176 11.904-36.32 17.888-54.496 16.128-49.12 32.224-98.208 48.352-147.328 8.736-26.624 17.504-53.28 26.24-79.904 0.832-2.56 1.408-5.184 1.28-7.936-0.224-4.448-3.136-6.72-7.424-5.728-0.768 0.16-1.504 0.416-2.24 0.672-26.4 9.632-52.864 19.104-79.2 28.992-9.12 3.424-18.528-1.376-22.336-8.768-14.496-28.224-29.12-56.384-43.648-84.608-1.28-2.464-2.88-4.512-5.536-5.504-0.288 0-0.576 0-0.864 0-2.912 0.96-4.608 3.136-5.824 5.792-0.416 0.896-0.736 1.824-1.056 2.784-14.72 44.864-29.472 89.728-44.192 134.592-9.024 27.456-18.016 54.912-27.040 82.336-1.312 4-2.656 8-4.128 12.416-0.32-0.96-0.512-1.408-0.64-1.888-3.584-13.472-7.168-26.976-10.72-40.448-16.192-60.896-32.384-121.792-48.576-182.688-0.672-2.464-1.536-4.864-3.264-6.848-2.144-2.464-4.832-2.656-7.232-0.48-1.12 1.024-1.952 2.208-2.72 3.52-10.368 17.568-20.736 35.136-31.104 52.704-5.696 9.632-11.456 19.232-17.056 28.928-4.256 7.36-13.792 11.872-23.040 7.648-14.624-6.72-29.504-12.832-44.256-19.168-11.264-4.832-22.496-9.696-33.76-14.496-5.568-2.368-9.184 0.096-9.312 6.176-0.032 2.368 0.352 4.64 0.96 6.912 15.2 57.12 30.4 114.272 45.6 171.392 10.912 40.992 21.792 81.952 32.768 122.944 0.48 1.76 0.064 2.304-1.632 2.72-5.92 1.408-11.776 3.040-17.568 5.024-4.768 1.632-9.376 3.648-13.76 6.144-11.936 6.752-18.112 17.504-21.28 30.4-2.848 11.68-3.84 23.616-5.504 35.456-2.112 14.944-6.88 28.736-16.288 40.736-4.32 5.536-8.736 10.976-13.184 16.416-6.272 7.712-12.448 15.456-16.736 24.512-1.92 4.064-2.912 8.352-4.032 12.672 0 3.392 0 6.816 0 10.208 0.128 0.32 0.352 0.608 0.384 0.928 0.608 4.288 1.792 8.448 3.264 12.512 3.84 10.432 9.6 19.904 14.848 29.6 4.352 8.032 8.576 16.16 10.848 25.088 2.72 10.816 2.144 21.792 1.536 32.768-0.576 10.048-1.408 20.064-0.768 30.144 1.024 16.16 7.872 28.832 21.536 37.76 9.824 6.432 20.448 11.328 31.104 16.096 17.088 7.648 30.656 19.008 40.256 35.232 4.96 8.416 10.176 16.704 16.128 24.48 5.76 7.52 12.224 14.176 20.96 18.24 9.728 4.512 20 4.768 30.4 3.648 10.848-1.184 21.472-3.776 32.224-5.536 7.84-1.312 15.744-2.144 23.68-1.216 9.376 1.088 18.144 4.32 26.88 7.648 10.432 4 20.704 8.544 31.648 11.008 2.528 0.672 4.96 1.12 7.36 1.6zM921.888 671.2c-0.064 96.032-76.608 174.784-173.6 175.488-98.368 0.704-177.12-77.504-177.088-175.168 0.032-96.416 76.864-174.816 174.336-175.424 97.6-0.608 176.352 78.080 176.352 175.104zM440.224 359.872c0-86.192-69.872-156.064-156.064-156.064s-156.064 69.872-156.064 156.064c0 86.192 69.872 156.064 156.064 156.064s156.064-69.872 156.064-156.064zM284.16 236.096c-151.872 0-275.008-123.104-275.008-275.008h549.984c0 151.904-123.104 275.008-274.976 275.008z" />
<glyph unicode="&#xe633;" glyph-name="icon-report" d="M882.464 407.392h86.304c32.192 0 58.304-26.080 58.304-58.272v-290.080h-202.848v290.080c-0.032 32.192 26.080 58.272 58.24 58.272zM330.976 693.76h86.304c32.16 0 58.24-26.080 58.24-58.272v-576.416h-202.816v576.416c0 32.192 26.080 58.272 58.272 58.272zM606.72 550.56h86.304c32.16 0 58.24-26.080 58.24-58.272v-433.248h-202.816v433.248c0 32.192 26.080 58.272 58.272 58.272zM55.232 836.928h86.304c32.192 0 58.304-26.080 58.304-58.272v-719.616h-202.848v719.648c-0.032 32.16 26.048 58.24 58.24 58.24z" />
<glyph unicode="&#xe634;" glyph-name="icon-security" d="M842.656 539.328v0h-71.872v209.056c0 8.032 10.848 207.008-203.872 207.008h-104.832c-214.976 0-209.184-202.944-208.832-213.088v-118.752l142.080-0.064v124.576c0 31.232 24.96 65.248 66.752 65.248h105.504c41.792 0 61.152-33.088 61.152-64.96v-209.056h-442.784c-38.048 0-74.784-33.984-74.784-72.032v-456.448c0-38.048 36.736-70.272 74.784-70.272h658.272c38.048 0 68.608 32.224 68.608 70.272v456.48c0 38.080-32.128 72.032-70.176 72.032z" />
<glyph unicode="&#xe635;" glyph-name="icon-services" d="M600.512 635.904c-4.64-4.192-80.096-71.68-173.344-155.072 14.848-18.112 32.288-37.568 52.864-58.176 26.272-26.176 50.72-47.36 72.8-64.512 89.984 100.64 163.936 183.328 167.712 187.52 10.080 11.104 18.176 7.712 22.56 6.464 74.016-20.96 157.504-2.496 195.616 76.96 35.2 73.408 6.432 130.016-17.056 169.12-5.632 9.504-14.656 3.808-17.024-1.184-2.496-5.056-44.736-93.248-44.736-93.248-11.296-23.616-38.944-41.312-94.24-14.816-55.296 26.528-58.688 59.168-47.36 82.72 0 0 39.456 82.272 44.736 93.216 5.248 11.040-2.784 13.824-7.584 13.184-45.28-5.92-107.68-19.040-142.944-92.576-20.256-42.144-19.008-83.424-4.096-119.712 2.24-5.376 4.768-18.592-7.904-29.888zM263.040 205.664c-22.24 22.272-44.032 45.76-65.152 70.144-81.024-72.448-141.952-126.944-141.952-126.944-3.136-2.848-6.24-5.92-9.12-9.056-42.656-47.776-38.56-120.992 9.12-163.616 47.68-42.656 120.896-38.528 163.52 9.152 0 0 54.688 61.184 127.904 143.072-29.44 24.832-57.824 50.784-84.32 77.248zM107.84 892.8c-85.856-87.296-90.528-197.792-90.528-197.792 21.44-107.168 141.184-302.464 286.912-448.128 145.664-145.76 340.928-265.504 448.16-286.848 0 0 110.528 4.576 197.728 90.496l0.064-0.128 51.424 51.392c6.784 6.784 6.784 17.984 0 24.768l-218.080 218.080c-6.848 6.784-17.984 6.784-24.768 0l-51.392-51.424 0.128-0.192-48.32-59.872c0 0-91.616 19.744-220.288 148.416-128.704 128.64-148.48 220.288-148.48 220.288l59.904 48.416 0.16-0.224 1.728 1.728 0.032 0.064 49.696 49.6c6.784 6.88 6.784 17.984 0 24.8l-218.048 217.952c-6.784 6.816-17.92 6.816-24.672 0l-51.424-51.392h0.064z" />
<glyph unicode="&#xe636;" glyph-name="icon-settings" d="M1000.096 526.336l-3.392 21.184-80.16 26.72c-7.616 24.384-17.376 48-29.216 70.528l37.824 75.584-12.608 17.376c-30.848 42.624-68.128 79.904-110.784 110.816l-17.376 12.608-75.616-37.824c-22.496 11.808-46.112 21.6-70.528 29.184l-26.72 80.16-21.12 3.392c-56.96 9.12-99.84 9.12-156.768 0l-21.184-3.392-26.72-80.16c-24.384-7.584-48-17.344-70.528-29.184l-75.616 37.792-17.344-12.544c-42.624-30.848-79.904-68.16-110.816-110.816l-12.608-17.376 37.824-75.616c-11.808-22.528-21.568-46.144-29.184-70.528l-80.16-26.72-3.392-21.184c-4.544-28.48-6.752-54.112-6.752-78.4 0-24.256 2.208-49.92 6.752-78.4l3.392-21.152 80.16-26.72c7.584-24.384 17.344-48 29.184-70.528l-37.792-75.616 12.576-17.376c16.736-23.104 33.312-42.784 50.688-60.128 17.376-17.376 37.056-33.952 60.16-50.688l17.376-12.608 75.584 37.824c22.528-11.84 46.144-21.6 70.528-29.216l26.72-80.16 21.184-3.392c28.48-4.544 54.112-6.752 78.368-6.752 24.288 0 49.92 2.208 78.4 6.752l21.152 3.392 26.72 80.16c24.416 7.584 48 17.376 70.56 29.216l75.584-37.824 17.376 12.608c23.104 16.704 42.72 33.28 60.16 50.72 17.376 17.376 33.92 36.992 50.624 60.096l12.608 17.376-37.824 75.584c11.84 22.528 21.6 46.144 29.216 70.56l80.16 26.72 3.392 21.152c4.544 28.48 6.752 54.112 6.752 78.4s-2.272 49.952-6.816 78.4zM512 203.68c-134.944 0-244.32 109.376-244.32 244.32s109.376 244.32 244.32 244.32c134.944 0 244.32-109.376 244.32-244.32s-109.376-244.32-244.32-244.32z" />
<glyph unicode="&#xe637;" glyph-name="icon-support" d="M1013.184 436.672c2.112 94.752-20.8 183.168-68.544 265.152-3.296 5.664-3.552 8.736 1.184 13.952 14.4 15.84 15.136 36.64 0.96 51.040-38.272 39.008-77.056 77.76-116.032 116.032-13.952 13.696-35.2 13.952-49.408 0.704-7.104-6.624-11.584-5.44-18.912-1.184-97.6 55.552-202.048 76.8-313.6 62.848-66.88-8.256-129.28-29.792-187.648-63.584-6.368-3.744-10.88-5.856-17.024 1.216-6.144 7.104-15.104 9.696-24.576 9.952-10.624-0.256-19.84-4.032-27.392-11.584-37.6-37.568-75.392-75.168-112.736-112.96-15.136-15.36-15.584-36.16-1.184-52 5.44-5.92 4.96-9.696 1.408-16.064-92.16-168.032-91.936-336.288 0.224-504.32 3.296-5.92 3.776-9.44-1.408-14.88-14.4-15.36-14.656-36.384-0.224-51.040 38.048-38.752 76.576-77.28 115.328-115.328 14.4-14.176 35.456-14.4 50.336-0.96 6.144 5.44 9.92 5.664 17.024 1.888 167.776-91.936 335.584-91.936 503.136 0 6.144 3.296 9.92 4.48 16.064-1.184 15.36-14.176 36.384-14.4 51.040 0.224 38.752 38.048 77.28 76.576 115.328 115.328 13.696 14.176 14.176 34.976 1.184 49.408-6.368 6.848-5.92 11.104-1.664 18.912 42.784 73.728 65.248 153.376 67.136 238.432zM221.728 325.856c-33.088-34.496-67.104-68.288-101.632-101.632-3.296-2.592-5.92-12.512-11.328-2.592-32.608 59.072-53.632 121.472-57.184 189.312-3.552 25.984-3.296 52 0.224 77.984 2.368 46.784 14.656 91.456 31.904 134.72 6.624 16.768 14.88 32.864 23.392 48.928 4.736 9.216 8.512 8.512 13.472 0.48 33.792-33.792 67.84-67.84 101.632-101.632 8.992-5.184 9.92-11.584 5.92-21.28-9.92-24.352-13.472-50.336-17.504-76.32 0-16.768 0-33.568 0-50.336v0c4.256-28.608 9.216-57.184 20.096-84.128 2.336-7.36-4.992-9.728-8.992-13.504zM294.048 857.12c145.568 73.728 291.168 73.728 436.96 0 16.064-8.256 15.84-8.512 1.408-21.024-25.984-27.424-52.928-54.368-80.352-80.352-0.224-0.224-0.224-0.704-0.48-0.96-14.176-19.392-28.608-25.536-54.816-16.544-61.696 21.024-125.024 17.248-186.464-4.96-8.992-3.296-14.4-2.368-20.32 4.736-5.184 6.368-11.328 12.064-17.024 17.952-27.424 25.984-54.112 52.928-80.352 80.352-14.4 12.512-14.624 12.736 1.44 20.8zM730.784 40.128c-145.568-73.728-291.168-73.728-436.736 0-16.064 8.032-15.84 8.512-1.408 21.024 25.984 27.424 52.928 54.368 80.352 80.352 0.224 0.224 0.224 0.704 0.48 0.96 14.176 19.392 28.608 25.536 54.816 16.768 61.696-21.024 124.768-17.248 186.24 4.96 8.992 3.296 14.4 2.368 20.32-4.736 5.184-6.368 11.328-12.064 17.024-17.952 27.424-25.984 54.368-52.928 80.352-80.352 14.368-12.512 14.624-12.768-1.44-21.024zM511.936 184.032c-145.824 0.224-264.224 118.88-264.224 264.928 0 146.272 119.104 264.928 265.632 264.448 145.568-0.48 263.968-119.36 263.488-265.408 0.032-146.016-118.848-264.192-264.896-263.968zM934.016 257.056c-4.96-11.104-11.104-21.504-16.32-32.608-4.48-9.696-8.512-8.032-13.248-0.48-34.496 33.312-68.288 67.104-101.632 101.632-9.216 5.184-9.92 11.584-5.92 21.504 9.92 24.352 13.472 50.56 17.504 76.32 0 16.768 0 33.568 0 50.336-1.184 28.128-5.664 55.776-13.696 82.72-1.664 5.44-1.184 10.4 2.112 15.136 33.088 34.496 67.104 68.288 101.632 101.632 6.368 1.888 8.736-2.848 11.104-7.104 29.792-52 47.264-108.224 56.256-167.328 0.704-4.96-1.408-10.176 1.408-14.88 3.072-24.352 3.072-48.928-0.224-73.248-2.112-53.664-16.992-104.448-38.976-153.632z" />
<glyph unicode="&#xe638;" glyph-name="icon-transfer-his" d="M688.224 119.616h245.888c40.864 0 73.984 33.12 73.984 73.984s-33.12 73.984-73.984 73.984h-245.888v90.176l-223.36-164.16 223.36-164.16v90.176zM465.792 463.744h-158.304c-24.928 0-45.12 20.192-45.12 45.12v145.344c0 24.928 20.192 45.12 45.12 45.12s45.12-20.192 45.12-45.12v-100.192h113.184c24.928 0 45.12-20.192 45.12-45.12s-20.192-45.152-45.12-45.152zM335.648 227.136c-176.288 0-319.712 143.424-319.712 319.712s143.424 319.712 319.712 319.712 319.712-143.424 319.712-319.712-143.424-319.712-319.712-319.712zM335.648 776.32c-126.528 0-229.472-102.944-229.472-229.472s102.944-229.472 229.472-229.472 229.472 102.944 229.472 229.472-102.944 229.472-229.472 229.472zM1008.096 500.064l-223.36 164.864v-90.176h-141.856c-4.704-56.448-27.52-107.648-62.624-147.968h204.48v-90.88l223.36 164.16z" />
<glyph unicode="&#xe639;" glyph-name="icon-transfer" d="M588.224 430.208l352.672 259.232-352.672 260.32v-142.4h-388.288c-64.544 0-116.832-52.288-116.832-116.832s52.288-116.832 116.832-116.832h388.288v-143.488zM435.776 88.64h388.288c64.544 0 116.832 52.288 116.832 116.832s-52.288 116.832-116.832 116.832h-388.288v142.4l-352.672-259.232 352.672-259.232v142.4z" />
<glyph unicode="&#xe63a;" glyph-name="icon-van" d="M352.192 199.104c0-53.762-43.582-97.344-97.344-97.344s-97.344 43.582-97.344 97.344c0 53.762 43.582 97.344 97.344 97.344s97.344-43.582 97.344-97.344zM885.536 199.104c0-53.762-43.582-97.344-97.344-97.344s-97.344 43.582-97.344 97.344c0 53.762 43.582 97.344 97.344 97.344s97.344-43.582 97.344-97.344zM1004.096 446.72l-196.832 237.056c-2.112 2.112-4.224 4.224-8.48 4.224h-129.12c-2.112 0-4.224 2.112-4.224 4.224v93.568c2.112 6.336-2.112 8.48-6.336 8.48h-634.944c-6.336 0-10.592-4.224-10.592-10.592v-576.096c0-4.224 4.224-8.48 8.48-8.48h65.6c4.224 0 6.336 2.112 6.336 6.336 2.112 33.856 12.704 67.744 35.968 97.344 40.224 48.672 124.864 69.856 184.128 46.56 63.488-25.408 99.488-82.528 101.6-143.936 0-4.224 2.112-6.336 6.336-6.336h198.944c4.224 0 6.336 2.112 6.336 6.336 2.112 42.336 19.040 84.672 57.152 116.416 48.672 42.336 120.64 50.784 177.792 21.152 55.040-29.632 86.784-82.528 88.896-137.568 0-4.224 2.112-6.336 6.336-6.336h44.448c4.224 0 8.48 4.224 8.48 8.48v228.608c-2.080 4.224-4.192 8.448-6.304 10.56zM938.464 423.456h-262.432c-2.112 0-4.224 2.112-4.224 4.224v198.944c0 2.112 2.112 4.224 4.224 4.224h101.6c2.112 0 2.112 0 4.224-2.112l160.864-198.944c0-2.112-2.144-6.336-4.256-6.336z" />
</font>
</defs>
</svg>
